<svg xmlns="http://www.w3.org/2000/svg" viewBox="0 0 1280 960" font-family="'Segoe UI', system-ui, -apple-system, sans-serif">
  <defs>
    <linearGradient id="snowflakeBg" x1="0%" y1="0%" x2="0%" y2="100%">
      <stop offset="0%" stop-color="#005EB8"/>
      <stop offset="100%" stop-color="#003E96"/>
    </linearGradient>
    <linearGradient id="headerBg" x1="0%" y1="0%" x2="100%" y2="0%">
      <stop offset="0%" stop-color="#001D74"/>
      <stop offset="100%" stop-color="#003E96"/>
    </linearGradient>
    <linearGradient id="notebookBg" x1="0%" y1="0%" x2="0%" y2="100%">
      <stop offset="0%" stop-color="#0085B3"/>
      <stop offset="100%" stop-color="#006A8F"/>
    </linearGradient>
    <linearGradient id="cortexBg" x1="0%" y1="0%" x2="0%" y2="100%">
      <stop offset="0%" stop-color="#339D37"/>
      <stop offset="100%" stop-color="#0A690D"/>
    </linearGradient>
    <linearGradient id="neo4jBg" x1="0%" y1="0%" x2="0%" y2="100%">
      <stop offset="0%" stop-color="#73182C"/>
      <stop offset="100%" stop-color="#501020"/>
    </linearGradient>
    <linearGradient id="dashBg" x1="0%" y1="0%" x2="0%" y2="100%">
      <stop offset="0%" stop-color="#FFCC2C"/>
      <stop offset="100%" stop-color="#B38800"/>
    </linearGradient>
    <linearGradient id="dataBg" x1="0%" y1="0%" x2="0%" y2="100%">
      <stop offset="0%" stop-color="#418FED"/>
      <stop offset="100%" stop-color="#005EB8"/>
    </linearGradient>
    <linearGradient id="audioBg" x1="0%" y1="0%" x2="0%" y2="100%">
      <stop offset="0%" stop-color="#E07020"/>
      <stop offset="100%" stop-color="#B05010"/>
    </linearGradient>
    <filter id="shadow" x="-4%" y="-4%" width="108%" height="108%">
      <feDropShadow dx="2" dy="3" stdDeviation="4" flood-opacity="0.25"/>
    </filter>
    <filter id="shadowSm" x="-2%" y="-2%" width="104%" height="104%">
      <feDropShadow dx="1" dy="2" stdDeviation="2" flood-opacity="0.2"/>
    </filter>
    <marker id="arrowBlue" markerWidth="8" markerHeight="6" refX="8" refY="3" orient="auto">
      <path d="M0,0 L8,3 L0,6" fill="#84D3FF"/>
    </marker>
    <marker id="arrowGold" markerWidth="8" markerHeight="6" refX="8" refY="3" orient="auto">
      <path d="M0,0 L8,3 L0,6" fill="#FFCC2C"/>
    </marker>
    <marker id="arrowWhite" markerWidth="8" markerHeight="6" refX="8" refY="3" orient="auto">
      <path d="M0,0 L8,3 L0,6" fill="#DEEBF9"/>
    </marker>
  </defs>

  <rect width="1280" height="960" fill="#000764" rx="12"/>

  <rect x="0" y="0" width="1280" height="4" fill="#73182C"/>
  <rect x="0" y="4" width="1280" height="50" rx="0" fill="url(#headerBg)"/>
  <text x="640" y="35" text-anchor="middle" fill="#DEEBF9" font-size="22" font-weight="700" letter-spacing="1">CDSB Demo — Solution Architecture</text>
  <text x="1260" y="35" text-anchor="end" fill="#73C2FF" font-size="12">April 2026</text>

  <!-- ============ DATA SOURCES (Left) ============ -->
  <rect x="16" y="68" width="150" height="295" rx="10" fill="url(#dataBg)" filter="url(#shadow)" opacity="0.95"/>
  <text x="91" y="92" text-anchor="middle" fill="#fff" font-size="13" font-weight="700">DATA SOURCES</text>
  <line x1="30" y1="100" x2="152" y2="100" stroke="#DEEBF9" stroke-width="1" opacity="0.5"/>

  <rect x="26" y="108" width="130" height="38" rx="5" fill="#001D74" opacity="0.7"/>
  <text x="91" y="124" text-anchor="middle" fill="#84D3FF" font-size="10" font-weight="600">QLD Open Data</text>
  <text x="91" y="137" text-anchor="middle" fill="#DEEBF9" font-size="8">data.qld.gov.au</text>

  <rect x="26" y="152" width="130" height="38" rx="5" fill="#001D74" opacity="0.7"/>
  <text x="91" y="168" text-anchor="middle" fill="#84D3FF" font-size="10" font-weight="600">TMR Registrations</text>
  <text x="91" y="181" text-anchor="middle" fill="#DEEBF9" font-size="8">304,553 records (CSV)</text>

  <rect x="26" y="196" width="130" height="38" rx="5" fill="#001D74" opacity="0.7"/>
  <text x="91" y="212" text-anchor="middle" fill="#84D3FF" font-size="10" font-weight="600">Synthetic Events</text>
  <text x="91" y="225" text-anchor="middle" fill="#DEEBF9" font-size="8">52,553 service requests</text>

  <rect x="26" y="240" width="130" height="32" rx="5" fill="#001D74" opacity="0.7"/>
  <text x="91" y="260" text-anchor="middle" fill="#84D3FF" font-size="10" font-weight="600">QLD Gov Documents</text>

  <rect x="26" y="278" width="130" height="38" rx="5" fill="#001D74" opacity="0.7"/>
  <text x="91" y="294" text-anchor="middle" fill="#E0A050" font-size="10" font-weight="600">Audio Recordings</text>
  <text x="91" y="307" text-anchor="middle" fill="#DEEBF9" font-size="8">5 multi-speaker WAV calls</text>

  <line x1="166" y1="215" x2="188" y2="215" stroke="#84D3FF" stroke-width="2.5" marker-end="url(#arrowBlue)"/>

  <!-- ============ SNOWFLAKE PLATFORM (Center-Left) ============ -->
  <rect x="188" y="68" width="700" height="740" rx="12" fill="url(#snowflakeBg)" filter="url(#shadow)" stroke="#418FED" stroke-width="1.5"/>
  <text x="538" y="92" text-anchor="middle" fill="#fff" font-size="15" font-weight="700">SNOWFLAKE  DATA  CLOUD</text>
  <text x="538" y="106" text-anchor="middle" fill="#DEEBF9" font-size="10">Account: SFSEAPAC-AU_DEMO50  |  Database: CDSB_DEMO</text>
  <line x1="205" y1="114" x2="870" y2="114" stroke="#DEEBF9" stroke-width="0.5" opacity="0.4"/>

  <!-- === Data Layer === -->
  <rect x="200" y="122" width="676" height="100" rx="7" fill="#001D74" opacity="0.5" filter="url(#shadowSm)"/>
  <text x="538" y="140" text-anchor="middle" fill="#84D3FF" font-size="12" font-weight="700">DATA LAYER  (CDSB_DEMO.RAW)</text>

  <rect x="210" y="148" width="130" height="66" rx="5" fill="#003E96" stroke="#418FED" stroke-width="0.8"/>
  <text x="275" y="163" text-anchor="middle" fill="#fff" font-size="9" font-weight="600">TMR Tables</text>
  <text x="275" y="175" text-anchor="middle" fill="#DEEBF9" font-size="7">TMR_REGISTRATIONS</text>
  <text x="275" y="185" text-anchor="middle" fill="#DEEBF9" font-size="7">TMR_SUBURB_MONTHLY</text>
  <text x="275" y="195" text-anchor="middle" fill="#DEEBF9" font-size="7">TMR_ANOMALY_RESULTS</text>
  <text x="275" y="205" text-anchor="middle" fill="#DEEBF9" font-size="7">TMR_TRAINING_DATA_CLEAN</text>

  <rect x="348" y="148" width="120" height="66" rx="5" fill="#003E96" stroke="#418FED" stroke-width="0.8"/>
  <text x="408" y="163" text-anchor="middle" fill="#fff" font-size="9" font-weight="600">Process Tables</text>
  <text x="408" y="175" text-anchor="middle" fill="#DEEBF9" font-size="7">SERVICE_REQUEST_EVENTS</text>
  <text x="408" y="185" text-anchor="middle" fill="#DEEBF9" font-size="7">PROCESS_NODES (10,016)</text>
  <text x="408" y="195" text-anchor="middle" fill="#DEEBF9" font-size="7">PROCESS_RELATIONSHIPS</text>

  <rect x="476" y="148" width="110" height="66" rx="5" fill="#003E96" stroke="#418FED" stroke-width="0.8"/>
  <text x="531" y="163" text-anchor="middle" fill="#fff" font-size="9" font-weight="600">Neo4j Tables</text>
  <text x="531" y="175" text-anchor="middle" fill="#DEEBF9" font-size="7">CASE / HANDLER / REGION</text>
  <text x="531" y="185" text-anchor="middle" fill="#DEEBF9" font-size="7">HANDLED_BY / IN_REGION</text>
  <text x="531" y="195" text-anchor="middle" fill="#DEEBF9" font-size="7">WCC / PageRank / Louvain</text>

  <rect x="594" y="148" width="105" height="66" rx="5" fill="#003E96" stroke="#418FED" stroke-width="0.8"/>
  <text x="646" y="163" text-anchor="middle" fill="#fff" font-size="9" font-weight="600">Audio Tables</text>
  <text x="646" y="175" text-anchor="middle" fill="#DEEBF9" font-size="7">CALL_TRANSCRIPTS</text>
  <text x="646" y="185" text-anchor="middle" fill="#DEEBF9" font-size="7">CALL_REDACTED</text>
  <text x="646" y="195" text-anchor="middle" fill="#DEEBF9" font-size="7">CALL_SENTIMENT</text>
  <text x="646" y="205" text-anchor="middle" fill="#DEEBF9" font-size="7">CALL_ANALYTICS</text>

  <rect x="707" y="148" width="105" height="66" rx="5" fill="#003E96" stroke="#418FED" stroke-width="0.8"/>
  <text x="759" y="163" text-anchor="middle" fill="#fff" font-size="9" font-weight="600">Graph Results</text>
  <text x="759" y="175" text-anchor="middle" fill="#DEEBF9" font-size="7">WCC / PR / Louvain</text>
  <text x="759" y="185" text-anchor="middle" fill="#DEEBF9" font-size="7">VIZ_* views (10)</text>
  <text x="759" y="195" text-anchor="middle" fill="#DEEBF9" font-size="7">TMR_ANOMALY_CLEAN</text>

  <!-- === Notebooks Layer (2 rows of 3) === -->
  <rect x="200" y="232" width="676" height="250" rx="7" fill="#001D74" opacity="0.5" filter="url(#shadowSm)"/>
  <text x="538" y="252" text-anchor="middle" fill="#84D3FF" font-size="12" font-weight="700">SNOWFLAKE NOTEBOOKS  (CDSB_DEMO.NOTEBOOKS)</text>

  <rect x="212" y="262" width="210" height="92" rx="6" fill="url(#notebookBg)" filter="url(#shadowSm)"/>
  <text x="317" y="279" text-anchor="middle" fill="#fff" font-size="10" font-weight="700">NB01 — Anomaly Detection</text>
  <line x1="224" y1="285" x2="410" y2="285" stroke="#DEEBF9" stroke-width="0.5" opacity="0.4"/>
  <text x="317" y="298" text-anchor="middle" fill="#DEEBF9" font-size="8">TMR data loading + time series</text>
  <text x="317" y="310" text-anchor="middle" fill="#DEEBF9" font-size="8">ML anomaly model (SNOWFLAKE.ML)</text>
  <text x="317" y="322" text-anchor="middle" fill="#DEEBF9" font-size="8">LLM-powered explanation</text>
  <text x="317" y="340" text-anchor="middle" fill="#84D3FF" font-size="7">32 cells | Plotly | CORTEX.COMPLETE</text>

  <rect x="432" y="262" width="210" height="92" rx="6" fill="url(#notebookBg)" filter="url(#shadowSm)"/>
  <text x="537" y="279" text-anchor="middle" fill="#fff" font-size="10" font-weight="700">NB02 — Process Mining</text>
  <line x1="444" y1="285" x2="630" y2="285" stroke="#DEEBF9" stroke-width="0.5" opacity="0.4"/>
  <text x="537" y="298" text-anchor="middle" fill="#DEEBF9" font-size="8">Synthetic event generation</text>
  <text x="537" y="310" text-anchor="middle" fill="#DEEBF9" font-size="8">Process flow + conformance</text>
  <text x="537" y="322" text-anchor="middle" fill="#DEEBF9" font-size="8">Neo4j table preparation</text>
  <text x="537" y="340" text-anchor="middle" fill="#84D3FF" font-size="7">25 cells | Plotly | Snowpark</text>

  <rect x="652" y="262" width="210" height="92" rx="6" fill="url(#notebookBg)" filter="url(#shadowSm)"/>
  <text x="757" y="279" text-anchor="middle" fill="#fff" font-size="10" font-weight="700">NB03 — Graph Analytics</text>
  <line x1="664" y1="285" x2="850" y2="285" stroke="#DEEBF9" stroke-width="0.5" opacity="0.4"/>
  <text x="757" y="298" text-anchor="middle" fill="#DEEBF9" font-size="8">WCC / PageRank / Louvain</text>
  <text x="757" y="310" text-anchor="middle" fill="#DEEBF9" font-size="8">neo4j-viz graph visualisation</text>
  <text x="757" y="322" text-anchor="middle" fill="#DEEBF9" font-size="8">Community + centrality analysis</text>
  <text x="757" y="340" text-anchor="middle" fill="#84D3FF" font-size="7">29 cells | neo4j-viz | Streamlit</text>

  <line x1="422" y1="308" x2="432" y2="308" stroke="#FFCC2C" stroke-width="1.5" marker-end="url(#arrowGold)"/>
  <line x1="642" y1="308" x2="652" y2="308" stroke="#FFCC2C" stroke-width="1.5" marker-end="url(#arrowGold)"/>

  <rect x="212" y="364" width="210" height="92" rx="6" fill="url(#notebookBg)" filter="url(#shadowSm)"/>
  <text x="317" y="381" text-anchor="middle" fill="#fff" font-size="10" font-weight="700">NB04 — Demo Reset</text>
  <line x1="224" y1="387" x2="410" y2="387" stroke="#DEEBF9" stroke-width="0.5" opacity="0.4"/>
  <text x="317" y="400" text-anchor="middle" fill="#DEEBF9" font-size="8">Drop all NB01-NB06 objects</text>
  <text x="317" y="412" text-anchor="middle" fill="#DEEBF9" font-size="8">Drop VIZ_* views (10)</text>
  <text x="317" y="424" text-anchor="middle" fill="#DEEBF9" font-size="8">Clean state verification</text>
  <text x="317" y="442" text-anchor="middle" fill="#84D3FF" font-size="7">16 cells | Full cleanup</text>

  <rect x="432" y="364" width="210" height="92" rx="6" fill="url(#notebookBg)" filter="url(#shadowSm)"/>
  <text x="537" y="381" text-anchor="middle" fill="#fff" font-size="10" font-weight="700">NB05 — ML Model Quality</text>
  <line x1="444" y1="387" x2="630" y2="387" stroke="#DEEBF9" stroke-width="0.5" opacity="0.4"/>
  <text x="537" y="400" text-anchor="middle" fill="#DEEBF9" font-size="8">AI_SIMILARITY false positive ID</text>
  <text x="537" y="412" text-anchor="middle" fill="#DEEBF9" font-size="8">IQR / CV training data quality</text>
  <text x="537" y="424" text-anchor="middle" fill="#DEEBF9" font-size="8">Clean retrain + model comparison</text>
  <text x="537" y="442" text-anchor="middle" fill="#84D3FF" font-size="7">26 cells | Plotly | AI_SIMILARITY</text>

  <rect x="652" y="364" width="210" height="92" rx="6" fill="url(#notebookBg)" filter="url(#shadowSm)"/>
  <text x="757" y="381" text-anchor="middle" fill="#fff" font-size="10" font-weight="700">NB06 — Audio AI Pipeline</text>
  <line x1="664" y1="387" x2="850" y2="387" stroke="#DEEBF9" stroke-width="0.5" opacity="0.4"/>
  <text x="757" y="400" text-anchor="middle" fill="#DEEBF9" font-size="8">AI_TRANSCRIBE (5 WAV files)</text>
  <text x="757" y="412" text-anchor="middle" fill="#DEEBF9" font-size="8">AI_TRANSLATE / AI_REDACT</text>
  <text x="757" y="424" text-anchor="middle" fill="#DEEBF9" font-size="8">AI_SENTIMENT (6-dimensional)</text>
  <text x="757" y="442" text-anchor="middle" fill="#84D3FF" font-size="7">27 cells | Plotly | Cortex AI</text>

  <!-- === Cortex AI Services === -->
  <rect x="200" y="494" width="336" height="130" rx="7" fill="#001D74" opacity="0.5" filter="url(#shadowSm)"/>
  <text x="368" y="514" text-anchor="middle" fill="#84D3FF" font-size="12" font-weight="700">CORTEX AI SERVICES</text>

  <rect x="212" y="524" width="128" height="34" rx="5" fill="url(#cortexBg)" filter="url(#shadowSm)"/>
  <text x="276" y="538" text-anchor="middle" fill="#fff" font-size="9" font-weight="600">Cortex Search</text>
  <text x="276" y="550" text-anchor="middle" fill="#DEEBF9" font-size="7">CDSB_SEARCH_SERVICE</text>

  <rect x="348" y="524" width="128" height="34" rx="5" fill="url(#cortexBg)" filter="url(#shadowSm)"/>
  <text x="412" y="538" text-anchor="middle" fill="#fff" font-size="9" font-weight="600">Cortex Agent</text>
  <text x="412" y="550" text-anchor="middle" fill="#DEEBF9" font-size="7">CDSB_ASSISTANT</text>

  <rect x="212" y="564" width="82" height="24" rx="4" fill="url(#cortexBg)" filter="url(#shadowSm)"/>
  <text x="253" y="580" text-anchor="middle" fill="#fff" font-size="8" font-weight="600">AI_TRANSCRIBE</text>

  <rect x="300" y="564" width="74" height="24" rx="4" fill="url(#cortexBg)" filter="url(#shadowSm)"/>
  <text x="337" y="580" text-anchor="middle" fill="#fff" font-size="8" font-weight="600">AI_TRANSLATE</text>

  <rect x="380" y="564" width="64" height="24" rx="4" fill="url(#cortexBg)" filter="url(#shadowSm)"/>
  <text x="412" y="580" text-anchor="middle" fill="#fff" font-size="8" font-weight="600">AI_REDACT</text>

  <rect x="450" y="564" width="78" height="24" rx="4" fill="url(#cortexBg)" filter="url(#shadowSm)"/>
  <text x="489" y="580" text-anchor="middle" fill="#fff" font-size="8" font-weight="600">AI_SENTIMENT</text>

  <rect x="212" y="594" width="78" height="22" rx="4" fill="url(#cortexBg)" filter="url(#shadowSm)"/>
  <text x="251" y="609" text-anchor="middle" fill="#fff" font-size="8" font-weight="600">AI_SIMILARITY</text>

  <rect x="296" y="594" width="74" height="22" rx="4" fill="url(#cortexBg)" filter="url(#shadowSm)"/>
  <text x="333" y="609" text-anchor="middle" fill="#fff" font-size="8" font-weight="600">ML Functions</text>

  <!-- === Neo4j Native App === -->
  <rect x="544" y="494" width="332" height="130" rx="7" fill="#001D74" opacity="0.5" filter="url(#shadowSm)"/>
  <text x="710" y="514" text-anchor="middle" fill="#84D3FF" font-size="12" font-weight="700">NEO4J GRAPH ANALYTICS</text>
  <text x="710" y="527" text-anchor="middle" fill="#DEEBF9" font-size="8">Native App (Marketplace)</text>

  <rect x="556" y="536" width="135" height="32" rx="5" fill="url(#neo4jBg)" filter="url(#shadowSm)"/>
  <text x="623" y="556" text-anchor="middle" fill="#fff" font-size="10" font-weight="600">WCC</text>

  <rect x="700" y="536" width="135" height="32" rx="5" fill="url(#neo4jBg)" filter="url(#shadowSm)"/>
  <text x="767" y="556" text-anchor="middle" fill="#fff" font-size="10" font-weight="600">PageRank</text>

  <rect x="556" y="574" width="135" height="28" rx="5" fill="url(#neo4jBg)" filter="url(#shadowSm)"/>
  <text x="623" y="592" text-anchor="middle" fill="#fff" font-size="10" font-weight="600">Louvain</text>

  <rect x="700" y="574" width="135" height="28" rx="5" fill="url(#neo4jBg)" filter="url(#shadowSm)"/>
  <text x="767" y="592" text-anchor="middle" fill="#fff" font-size="10" font-weight="600">CPU_X64_XS Pool</text>

  <!-- === Streamlit + Stages (side by side) === -->
  <rect x="200" y="636" width="336" height="68" rx="7" fill="#001D74" opacity="0.5" filter="url(#shadowSm)"/>
  <text x="368" y="655" text-anchor="middle" fill="#84D3FF" font-size="12" font-weight="700">STREAMLIT IN SNOWFLAKE</text>
  <rect x="212" y="665" width="312" height="28" rx="5" fill="#003E96" stroke="#418FED" stroke-width="0.8"/>
  <text x="368" y="683" text-anchor="middle" fill="#fff" font-size="10" font-weight="600">CDSB_PLATFORM</text>

  <rect x="544" y="636" width="332" height="68" rx="7" fill="#001D74" opacity="0.5" filter="url(#shadowSm)"/>
  <text x="710" y="655" text-anchor="middle" fill="#84D3FF" font-size="12" font-weight="700">INTERNAL STAGES</text>
  <rect x="556" y="665" width="88" height="28" rx="5" fill="#003E96" stroke="#418FED" stroke-width="0.8"/>
  <text x="600" y="683" text-anchor="middle" fill="#DEEBF9" font-size="7">QLD_OPEN_DATA</text>
  <rect x="650" y="665" width="95" height="28" rx="5" fill="#003E96" stroke="#418FED" stroke-width="0.8"/>
  <text x="697" y="683" text-anchor="middle" fill="#DEEBF9" font-size="7">NOTEBOOK_STAGE 01-06</text>
  <rect x="751" y="665" width="80" height="28" rx="5" fill="url(#audioBg)" stroke="#E0A050" stroke-width="0.8"/>
  <text x="791" y="679" text-anchor="middle" fill="#fff" font-size="7" font-weight="600">AUDIO_FILES</text>
  <text x="791" y="690" text-anchor="middle" fill="#DEEBF9" font-size="6">5 WAV (SSE)</text>

  <!-- === Infrastructure === -->
  <rect x="200" y="716" width="676" height="80" rx="7" fill="#001D74" opacity="0.5" filter="url(#shadowSm)"/>
  <text x="538" y="736" text-anchor="middle" fill="#84D3FF" font-size="12" font-weight="700">INFRASTRUCTURE &amp; SECURITY</text>

  <rect x="212" y="746" width="155" height="40" rx="5" fill="#003E96" stroke="#418FED" stroke-width="0.8"/>
  <text x="289" y="762" text-anchor="middle" fill="#fff" font-size="9" font-weight="600">COMPUTE_WH</text>
  <text x="289" y="776" text-anchor="middle" fill="#DEEBF9" font-size="8">Standard Warehouse</text>

  <rect x="375" y="746" width="155" height="40" rx="5" fill="#003E96" stroke="#418FED" stroke-width="0.8"/>
  <text x="452" y="762" text-anchor="middle" fill="#fff" font-size="9" font-weight="600">ACCOUNTADMIN</text>
  <text x="452" y="776" text-anchor="middle" fill="#DEEBF9" font-size="8">NEO4J_ROLE (DB Role)</text>

  <rect x="538" y="746" width="165" height="40" rx="5" fill="#003E96" stroke="#418FED" stroke-width="0.8"/>
  <text x="620" y="762" text-anchor="middle" fill="#fff" font-size="9" font-weight="600">CDSB_DASHBOARD_SVC</text>
  <text x="620" y="776" text-anchor="middle" fill="#DEEBF9" font-size="8">Keypair Auth (RSA)</text>

  <rect x="711" y="746" width="153" height="40" rx="5" fill="#003E96" stroke="#418FED" stroke-width="0.8"/>
  <text x="787" y="762" text-anchor="middle" fill="#fff" font-size="9" font-weight="600">Auth Policies</text>
  <text x="787" y="776" text-anchor="middle" fill="#DEEBF9" font-size="8">MFA + Keypair override</text>

  <!-- ============ RIGHT COLUMN ============ -->

  <!-- NEXT.JS DASHBOARD -->
  <rect x="908" y="68" width="356" height="290" rx="10" fill="#042D56" filter="url(#shadow)" stroke="#FFCC2C" stroke-width="1.5"/>
  <rect x="908" y="68" width="356" height="4" rx="2" fill="#73182C"/>
  <text x="1086" y="92" text-anchor="middle" fill="#FFCC2C" font-size="14" font-weight="700">NEXT.JS DASHBOARD</text>
  <text x="1086" y="106" text-anchor="middle" fill="#DEEBF9" font-size="9">localhost:3456 | QLD Branded</text>
  <line x1="922" y1="114" x2="1250" y2="114" stroke="#FFCC2C" stroke-width="0.5" opacity="0.4"/>

  <rect x="922" y="122" width="155" height="42" rx="5" fill="#001D74" stroke="#418FED" stroke-width="0.8"/>
  <text x="999" y="140" text-anchor="middle" fill="#84D3FF" font-size="10" font-weight="600">Anomaly Detection</text>
  <text x="999" y="153" text-anchor="middle" fill="#DEEBF9" font-size="8">Stat cards, time series, table</text>

  <rect x="1085" y="122" width="155" height="42" rx="5" fill="#001D74" stroke="#418FED" stroke-width="0.8"/>
  <text x="1162" y="140" text-anchor="middle" fill="#84D3FF" font-size="10" font-weight="600">Process Mining</text>
  <text x="1162" y="153" text-anchor="middle" fill="#DEEBF9" font-size="8">Flow, conformance, resolution</text>

  <rect x="922" y="172" width="155" height="42" rx="5" fill="#001D74" stroke="#418FED" stroke-width="0.8"/>
  <text x="999" y="190" text-anchor="middle" fill="#84D3FF" font-size="10" font-weight="600">Graph Analytics</text>
  <text x="999" y="203" text-anchor="middle" fill="#DEEBF9" font-size="8">Force graph, handler stats</text>

  <rect x="1085" y="172" width="155" height="42" rx="5" fill="#001D74" stroke="#418FED" stroke-width="0.8"/>
  <text x="1162" y="190" text-anchor="middle" fill="#84D3FF" font-size="10" font-weight="600">Regional View</text>
  <text x="1162" y="203" text-anchor="middle" fill="#DEEBF9" font-size="8">QLD map, bars, trends</text>

  <line x1="922" y1="224" x2="1250" y2="224" stroke="#FFCC2C" stroke-width="0.5" opacity="0.4"/>
  <text x="1086" y="242" text-anchor="middle" fill="#DEEBF9" font-size="10" font-weight="600">Tech Stack</text>
  <text x="1000" y="260" text-anchor="middle" fill="#73C2FF" font-size="9">Next.js 16 | Recharts</text>
  <text x="1000" y="274" text-anchor="middle" fill="#73C2FF" font-size="9">Tailwind CSS v4</text>
  <text x="1170" y="260" text-anchor="middle" fill="#73C2FF" font-size="9">Snowflake JWT Auth</text>
  <text x="1170" y="274" text-anchor="middle" fill="#73C2FF" font-size="9">Custom QLD SVG Map</text>

  <line x1="888" y1="215" x2="908" y2="215" stroke="#FFCC2C" stroke-width="2.5" marker-end="url(#arrowGold)"/>

  <!-- DESIGN PRINCIPLES -->
  <rect x="908" y="376" width="356" height="155" rx="10" fill="#042D56" filter="url(#shadow)" stroke="#418FED" stroke-width="1"/>
  <text x="1086" y="398" text-anchor="middle" fill="#84D3FF" font-size="10" font-weight="700">DESIGN PRINCIPLES</text>
  <line x1="922" y1="406" x2="1250" y2="406" stroke="#DEEBF9" stroke-width="0.5" opacity="0.4"/>

  <text x="940" y="424" fill="#DEEBF9" font-size="9">Data never leaves Snowflake</text>
  <text x="940" y="438" fill="#DEEBF9" font-size="9">Neo4j runs as Native App</text>
  <text x="940" y="452" fill="#DEEBF9" font-size="9">ML models trained in-platform</text>
  <text x="940" y="466" fill="#DEEBF9" font-size="9">LLM-powered explanations</text>
  <text x="940" y="480" fill="#DEEBF9" font-size="9">Cortex AI for audio/PII/NLP</text>

  <text x="1120" y="424" fill="#DEEBF9" font-size="9">RAG search + Cortex Agent</text>
  <text x="1120" y="438" fill="#DEEBF9" font-size="9">QLD Gov branded dashboard</text>
  <text x="1120" y="452" fill="#DEEBF9" font-size="9">Self-contained notebooks (6)</text>
  <text x="1120" y="466" fill="#DEEBF9" font-size="9">Server-side encryption (SSE)</text>

  <!-- 90-MIN SESSION -->
  <rect x="908" y="548" width="356" height="258" rx="10" fill="#042D56" filter="url(#shadow)" stroke="#73182C" stroke-width="1"/>
  <text x="1086" y="572" text-anchor="middle" fill="#FFCC2C" font-size="12" font-weight="700">90-MIN SESSION</text>
  <line x1="922" y1="580" x2="1250" y2="580" stroke="#DEEBF9" stroke-width="0.5" opacity="0.4"/>

  <text x="930" y="600" fill="#84D3FF" font-size="9" font-weight="600">1. Welcome (5 min)</text>

  <text x="930" y="620" fill="#84D3FF" font-size="9" font-weight="600">2. Doc AI Search (20 min)</text>
  <text x="942" y="633" fill="#DEEBF9" font-size="8">Cortex Search + Agent</text>

  <text x="930" y="653" fill="#84D3FF" font-size="9" font-weight="600">3. Anomaly Detection (15 min)</text>
  <text x="942" y="666" fill="#DEEBF9" font-size="8">NB01 + NB05 + Dashboard</text>

  <text x="930" y="686" fill="#84D3FF" font-size="9" font-weight="600">4. Process Mining (15 min)</text>
  <text x="942" y="699" fill="#DEEBF9" font-size="8">NB02 + Dashboard</text>

  <text x="930" y="719" fill="#84D3FF" font-size="9" font-weight="600">5. Graph Analytics (10 min)</text>
  <text x="942" y="732" fill="#DEEBF9" font-size="8">NB03 + neo4j-viz + Dashboard</text>

  <text x="930" y="752" fill="#84D3FF" font-size="9" font-weight="600">6. Audio AI Pipeline (15 min)</text>
  <text x="942" y="765" fill="#DEEBF9" font-size="8">NB06 — Transcribe/Translate/Redact</text>

  <!-- ============ BUILD TOOLING (Bottom) ============ -->
  <rect x="16" y="820" width="1248" height="50" rx="8" fill="#222020" filter="url(#shadowSm)" opacity="0.9"/>
  <text x="50" y="842" fill="#84D3FF" font-size="12" font-weight="700">BUILD TOOLING</text>
  <text x="50" y="858" fill="#DEEBF9" font-size="9">build_sf_notebooks.py — generates all 6 .ipynb files from Python DSL  |  generate_audio.py — 5 multi-speaker WAV recordings (gTTS)  |  snow CLI — deploy  |  Cortex Code — IDE</text>
</svg>